# xmcd
# 
# Track frame offsets:
#     150
#     56992
#     82924
#     129140
#     136790
#     201318
# 
# Disc length: 2894
# 
# Revision: 4
# Processed by: cddbd v1.5.2PL0 Copyright (c) Steve Scherf et al.
# Submitted via: fre:ac v1.0.17
# 
DISCID=4b0b4c06
DTITLE=Joe Zawinul and The Zawinul Syndicate - 75th [CD 2]
DYEAR=2012
DGENRE=Jazz
TTITLE0=Fast City - Two Lines
TTITLE1=Clario
TTITLE2=Badia - Boogie Woogie Waltz
TTITLE3=Happy Birthday
TTITLE4=In A Silent Way
TTITLE5=Hymn
EXTD=YEAR: 2008
EXTT0=
EXTT1=
EXTT2=
EXTT3=
EXTT4=
EXTT5=
PLAYORDER=
